<?xml version="1.0" encoding="UTF-8"?>
<svg enable-background="new 0 0 69.7 66" version="1.1" viewBox="0 0 69.7 66" xmlns="http://www.w3.org/2000/svg">
 <style type="text/css">.st0{fill:#BCBEC0;stroke:#231F20;stroke-miterlimit:10;} .st1{fill:#ED1C24;stroke:#231F20;stroke-miterlimit:10;} .st2{fill:#939598;stroke:#231F20;stroke-miterlimit:10;} .st3{fill:#231F20;stroke:#231F20;stroke-miterlimit:10;}</style>
 <ellipse class="st0" cx="35.1" cy="53.2" rx="7.2" ry="6.7"/>
 <ellipse class="st1" cx="35.1" cy="53.2" rx="4.5" ry="4.3"/>
 <ellipse class="st0" cx="35.1" cy="26.9" rx="32.7" ry="24.6"/>
 <path class="st2" d="m51.3 35.8c-3.1-8.6-9.7-14.4-15.7-14.7h-1c-6.1 0.3-12.6 6.1-15.7 14.7-3.8 10.3-1.2 20.8 5.7 23.3 3.3 1.2 10.5-1.9 10.5-7.9 0 6 7.2 9.1 10.5 7.9 7-2.5 9.5-13 5.7-23.3z"/>
 <circle class="st3" cx="17.2" cy="21.7" r="3.6"/>
 <circle class="st3" cx="53.1" cy="21.7" r="3.6"/>
 <ellipse class="st3" transform="matrix(.4067 -.9135 .9135 .4067 -14.992 48.214)" cx="29.6" cy="35.7" rx=".9" ry="1.8"/>
 <ellipse class="st3" transform="matrix(.9135 -.4067 .4067 .9135 -10.988 19.606)" cx="40.6" cy="35.7" rx="1.8" ry=".9"/>
</svg>
